<svg width="41" height="36" viewBox="0 0 41 36" fill="none" xmlns="http://www.w3.org/2000/svg">
<g filter="url(#filter0_d)">
<path d="M35.2266 15.5312C35.8203 16.7812 36.1172 18.0469 36.1172 19.3281C36.1172 20.5781 35.8047 21.8281 35.1797 23.0781C34.5547 24.2969 33.5391 25.3906 32.1328 26.3594C30.7266 27.2969 28.9297 27.7656 26.7422 27.7656H26.4609C26.2734 27.7969 26.0859 27.8125 25.8984 27.8125H7.05469C6.21094 27.7812 5.49219 27.4844 4.89844 26.9219C4.33594 26.3281 4.03906 25.6094 4.00781 24.7656V3.29688C4.03906 2.45312 4.33594 1.75 4.89844 1.1875C5.49219 0.59375 6.21094 0.28125 7.05469 0.25H23.1797C23.3672 0.25 23.5547 0.265625 23.7422 0.296875H24.0234C26.2109 0.359375 28.0078 0.859375 29.4141 1.79688C30.8203 2.73438 31.8359 3.8125 32.4609 5.03125C33.0859 6.21875 33.3984 7.42188 33.3984 8.64062C33.3984 9.89062 33.1016 11.1094 32.5078 12.2969C32.4766 12.3594 32.4453 12.4062 32.4141 12.4375C33.6953 13.3438 34.6328 14.375 35.2266 15.5312ZM27.0234 21.5312C27.6172 21.5625 28.1016 21.4531 28.4766 21.2031C28.8828 20.9531 29.1797 20.6719 29.3672 20.3594C29.5547 20.0156 29.6484 19.6719 29.6484 19.3281C29.6484 19.1094 29.5547 18.8125 29.3672 18.4375C29.1797 18.0312 28.8828 17.7031 28.4766 17.4531C28.1016 17.2031 27.6172 17.0625 27.0234 17.0312H24.0234H10.3359V20.2656C10.3359 21.1094 10.7734 21.5312 11.6484 21.5312H12.0234H27.0234ZM25.8047 10.3281C26.1797 10.1094 26.4609 9.85938 26.6484 9.57812C26.8359 9.26562 26.9297 8.95312 26.9297 8.64062C26.9297 8.32812 26.8359 8.03125 26.6484 7.75C26.4609 7.4375 26.1641 7.17188 25.7578 6.95312C25.3828 6.70312 24.8984 6.5625 24.3047 6.53125H11.6484C10.7734 6.53125 10.3359 6.95312 10.3359 7.79688V10.75H24.3047C24.8984 10.7188 25.3984 10.5781 25.8047 10.3281Z" fill="#288DB9"/>
</g>
<defs>
<filter id="filter0_d" x="0.0078125" y="0.25" width="40.1094" height="35.5625" filterUnits="userSpaceOnUse" color-interpolation-filters="sRGB">
<feFlood flood-opacity="0" result="BackgroundImageFix"/>
<feColorMatrix in="SourceAlpha" type="matrix" values="0 0 0 0 0 0 0 0 0 0 0 0 0 0 0 0 0 0 127 0"/>
<feOffset dy="4"/>
<feGaussianBlur stdDeviation="2"/>
<feColorMatrix type="matrix" values="0 0 0 0 0 0 0 0 0 0 0 0 0 0 0 0 0 0 0.15 0"/>
<feBlend mode="normal" in2="BackgroundImageFix" result="effect1_dropShadow"/>
<feBlend mode="normal" in="SourceGraphic" in2="effect1_dropShadow" result="shape"/>
</filter>
</defs>
</svg>
