<svg width="175" height="38" viewBox="0 0 175 38" fill="none" xmlns="http://www.w3.org/2000/svg">
<g filter="url(#filter0_d)">
<path d="M35.4016 16.5312C35.9953 17.7812 36.2922 19.0469 36.2922 20.3281C36.2922 21.5781 35.9797 22.8281 35.3547 24.0781C34.7297 25.2969 33.7141 26.3906 32.3078 27.3594C30.9016 28.2969 29.1047 28.7656 26.9172 28.7656H26.6359C26.4484 28.7969 26.2609 28.8125 26.0734 28.8125H7.22969C6.38594 28.7812 5.66719 28.4844 5.07344 27.9219C4.51094 27.3281 4.21407 26.6094 4.18282 25.7656V4.29688C4.21407 3.45312 4.51094 2.75 5.07344 2.1875C5.66719 1.59375 6.38594 1.28125 7.22969 1.25H23.3547C23.5422 1.25 23.7297 1.26563 23.9172 1.29688H24.1984C26.3859 1.35938 28.1828 1.85938 29.5891 2.79688C30.9953 3.73438 32.0109 4.8125 32.6359 6.03125C33.2609 7.21875 33.5734 8.42188 33.5734 9.64062C33.5734 10.8906 33.2766 12.1094 32.6828 13.2969C32.6516 13.3594 32.6203 13.4062 32.5891 13.4375C33.8703 14.3438 34.8078 15.375 35.4016 16.5312ZM27.1984 22.5312C27.7922 22.5625 28.2766 22.4531 28.6516 22.2031C29.0578 21.9531 29.3547 21.6719 29.5422 21.3594C29.7297 21.0156 29.8234 20.6719 29.8234 20.3281C29.8234 20.1094 29.7297 19.8125 29.5422 19.4375C29.3547 19.0312 29.0578 18.7031 28.6516 18.4531C28.2766 18.2031 27.7922 18.0625 27.1984 18.0312H24.1984H10.5109V21.2656C10.5109 22.1094 10.9484 22.5312 11.8234 22.5312H12.1984H27.1984ZM25.9797 11.3281C26.3547 11.1094 26.6359 10.8594 26.8234 10.5781C27.0109 10.2656 27.1047 9.95312 27.1047 9.64062C27.1047 9.32812 27.0109 9.03125 26.8234 8.75C26.6359 8.4375 26.3391 8.17188 25.9328 7.95312C25.5578 7.70312 25.0734 7.5625 24.4797 7.53125H11.8234C10.9484 7.53125 10.5109 7.95312 10.5109 8.79688V11.75H24.4797C25.0734 11.7188 25.5734 11.5781 25.9797 11.3281ZM53.6734 29.9844C52.0484 29.9844 50.4391 29.7969 48.8453 29.4219C47.2828 29.0469 45.7828 28.5 44.3453 27.7812C42.9078 27.0312 41.6422 26.0469 40.5484 24.8281C39.4547 23.6094 38.8609 22.1562 38.7672 20.4688V18.5V3.54688C38.7672 2.67188 39.0797 1.95312 39.7047 1.39062C40.3609 0.796875 41.1266 0.5 42.0016 0.5C43.8766 0.65625 44.8922 1.67188 45.0484 3.54688V19.0156C45.1109 19.9844 45.4703 20.7969 46.1266 21.4531C46.8141 22.0781 47.5641 22.5781 48.3766 22.9531C49.2203 23.3281 50.0797 23.6094 50.9547 23.7969C51.8609 23.9844 52.7672 24.0781 53.6734 24.0781C54.5797 24.0781 55.4703 23.9844 56.3453 23.7969C57.2516 23.6094 58.1109 23.3281 58.9234 22.9531C59.7672 22.5781 60.5172 22.0781 61.1734 21.4531C61.8609 20.7969 62.2359 19.9844 62.2984 19.0156V3.54688C62.2984 2.67188 62.6109 1.95312 63.2359 1.39062C63.8922 0.796875 64.6578 0.5 65.5328 0.5C67.4078 0.65625 68.4391 1.67188 68.6266 3.54688V18.5V20.4688C68.5328 22.1562 67.9234 23.6094 66.7984 24.8281C65.7047 26.0469 64.4391 27.0312 63.0016 27.7812C61.5641 28.5 60.0484 29.0469 58.4547 29.4219C56.8922 29.7969 55.2984 29.9844 53.6734 29.9844ZM92.8047 1.25C94.9922 1.375 96.7891 2.21875 98.1953 3.78125C99.6016 5.3125 100.617 7.0625 101.242 9.03125C101.867 11 102.18 13.0156 102.18 15.0781C102.18 17.1406 101.867 19.1562 101.242 21.125C100.648 23.0938 99.6328 24.8594 98.1953 26.4219C96.7891 27.9531 94.9922 28.7812 92.8047 28.9062H75.5547C74.7109 28.875 73.9922 28.5781 73.3984 28.0156C72.8359 27.4219 72.5391 26.7031 72.5078 25.8594V14.2344C72.5391 13.3594 72.8672 12.6406 73.4922 12.0781C74.1172 11.4844 74.8672 11.1875 75.7422 11.1875C76.5859 11.2188 77.3047 11.5312 77.8984 12.125C78.4922 12.6875 78.8047 13.3906 78.8359 14.2344V21.3594C78.8359 22.2031 79.2734 22.625 80.1484 22.625H91.2109C92.3984 22.5625 93.3828 22.1094 94.1641 21.2656C94.9453 20.4219 95.5078 19.4688 95.8516 18.4062C96.2266 17.3125 96.4141 16.2031 96.4141 15.0781C96.4141 13.9531 96.2266 12.8594 95.8516 11.7969C95.5078 10.7031 94.9453 9.73438 94.1641 8.89062C93.3828 8.04688 92.3984 7.59375 91.2109 7.53125H75.5547C73.6797 7.375 72.6641 6.35938 72.5078 4.48438C72.5078 3.60938 72.7891 2.85938 73.3516 2.23438C73.9453 1.60937 74.6797 1.28125 75.5547 1.25H92.8047ZM113.795 1.25H133.577C134.452 1.28125 135.17 1.60937 135.733 2.23438C136.327 2.85938 136.623 3.60938 136.623 4.48438C136.467 6.35938 135.452 7.375 133.577 7.53125H115.389C114.202 7.59375 113.217 8.04688 112.436 8.89062C111.655 9.73438 111.077 10.7031 110.702 11.7969C110.358 12.8594 110.186 13.9531 110.186 15.0781C110.186 16.2031 110.358 17.3125 110.702 18.4062C111.077 19.4688 111.655 20.4219 112.436 21.2656C113.217 22.1094 114.202 22.5625 115.389 22.625H129.639C130.202 22.5938 130.498 22.2812 130.53 21.6875V18.9688C130.498 18.3438 130.202 18.0312 129.639 18.0312H117.639C116.764 18.0312 116.014 17.7344 115.389 17.1406C114.795 16.5156 114.498 15.7656 114.498 14.8906C114.498 14.0156 114.795 13.2656 115.389 12.6406C116.014 12.0469 116.764 11.75 117.639 11.75H133.67C134.545 11.75 135.295 12.0469 135.92 12.6406C136.483 13.2344 136.78 13.9531 136.811 14.7969V14.8906V25.8594C136.78 26.7031 136.483 27.4062 135.92 27.9688C135.327 28.5625 134.608 28.875 133.764 28.9062H113.795C111.608 28.7812 109.795 27.9531 108.358 26.4219C106.952 24.8594 105.936 23.0938 105.311 21.125C104.717 19.1562 104.42 17.1406 104.42 15.0781C104.42 13.0156 104.733 11 105.358 9.03125C105.983 7.0625 106.998 5.3125 108.405 3.78125C109.811 2.21875 111.608 1.375 113.795 1.25ZM148.942 1.25H151.098H167.036C167.911 1.28125 168.63 1.60937 169.192 2.23438C169.786 2.85938 170.083 3.60938 170.083 4.48438C169.927 6.35938 168.911 7.375 167.036 7.53125H150.536C149.348 7.59375 148.364 8.04688 147.583 8.89062C146.802 9.73438 146.223 10.7031 145.848 11.7969C145.505 12.8594 145.333 13.9531 145.333 15.0781C145.333 16.2031 145.505 17.3125 145.848 18.4062C146.223 19.4688 146.802 20.4219 147.583 21.2656C148.364 22.1094 149.348 22.5625 150.536 22.625H167.036C167.911 22.6562 168.63 22.9844 169.192 23.6094C169.786 24.2344 170.083 24.9844 170.083 25.8594C170.052 26.7031 169.739 27.4219 169.145 28.0156C168.583 28.5781 167.88 28.875 167.036 28.9062H149.833H148.942C146.755 28.7812 144.942 27.9531 143.505 26.4219C142.098 24.8594 141.083 23.0938 140.458 21.125C139.864 19.1562 139.567 17.1406 139.567 15.0781C139.567 13.0156 139.88 11 140.505 9.03125C141.13 7.0625 142.145 5.3125 143.552 3.78125C144.958 2.21875 146.755 1.375 148.942 1.25ZM169.989 14.8906C169.989 15.7656 169.677 16.5 169.052 17.0938C168.458 17.7188 167.723 18.0312 166.848 18.0312H152.692C151.817 18.0312 151.067 17.7344 150.442 17.1406C149.848 16.5156 149.552 15.7656 149.552 14.8906C149.552 14.0156 149.848 13.2656 150.442 12.6406C151.067 12.0469 151.817 11.75 152.692 11.75H166.848C167.723 11.75 168.458 12.0625 169.052 12.6875C169.677 13.2812 169.989 14.0156 169.989 14.8906Z" fill="#288DB9"/>
</g>
<defs>
<filter id="filter0_d" x="0.182617" y="0.5" width="173.9" height="37.4844" filterUnits="userSpaceOnUse" color-interpolation-filters="sRGB">
<feFlood flood-opacity="0" result="BackgroundImageFix"/>
<feColorMatrix in="SourceAlpha" type="matrix" values="0 0 0 0 0 0 0 0 0 0 0 0 0 0 0 0 0 0 127 0"/>
<feOffset dy="4"/>
<feGaussianBlur stdDeviation="2"/>
<feColorMatrix type="matrix" values="0 0 0 0 0 0 0 0 0 0 0 0 0 0 0 0 0 0 0.15 0"/>
<feBlend mode="normal" in2="BackgroundImageFix" result="effect1_dropShadow"/>
<feBlend mode="normal" in="SourceGraphic" in2="effect1_dropShadow" result="shape"/>
</filter>
</defs>
</svg>
